<?xml version="1.0" encoding="utf-8" ?>
<svg baseProfile="full" height="200" version="1.1" width="800" xmlns="http://www.w3.org/2000/svg" xmlns:ev="http://www.w3.org/2001/xml-events" xmlns:xlink="http://www.w3.org/1999/xlink"><defs /><g transform="translate(50, 50)"><rect fill="green" height="10" width="10" x="0" y="0" /><rect fill="green" height="10" width="10" x="0" y="12" /><rect fill="green" height="10" width="10" x="0" y="24" /><rect fill="green" height="10" width="10" x="0" y="36" /><rect fill="green" height="10" width="10" x="0" y="48" /><rect fill="brown" height="10" width="10" x="0" y="60" /><rect fill="brown" height="10" width="10" x="0" y="72" /><rect fill="brown" height="10" width="10" x="12" y="0" /><rect fill="brown" height="10" width="10" x="12" y="12" /><rect fill="brown" height="10" width="10" x="12" y="24" /><rect fill="brown" height="10" width="10" x="12" y="36" /><rect fill="brown" height="10" width="10" x="12" y="48" /><rect fill="brown" height="10" width="10" x="12" y="60" /><rect fill="brown" height="10" width="10" x="12" y="72" /><rect fill="brown" height="10" width="10" x="24" y="0" /><rect fill="brown" height="10" width="10" x="24" y="12" /><rect fill="brown" height="10" width="10" x="24" y="24" /><rect fill="brown" height="10" width="10" x="24" y="36" /><rect fill="brown" height="10" width="10" x="24" y="48" /><rect fill="brown" height="10" width="10" x="24" y="60" /><rect fill="brown" height="10" width="10" x="24" y="72" /><rect fill="brown" height="10" width="10" x="36" y="0" /><rect fill="brown" height="10" width="10" x="36" y="12" /><rect fill="brown" height="10" width="10" x="36" y="24" /><rect fill="brown" height="10" width="10" x="36" y="36" /><rect fill="brown" height="10" width="10" x="36" y="48" /><rect fill="brown" height="10" width="10" x="36" y="60" /><rect fill="#c39143" height="10" width="10" x="36" y="72" /><rect fill="brown" height="10" width="10" x="48" y="0" /><rect fill="brown" height="10" width="10" x="48" y="12" /><rect fill="brown" height="10" width="10" x="48" y="24" /><rect fill="brown" height="10" width="10" x="48" y="36" /><rect fill="brown" height="10" width="10" x="48" y="48" /><rect fill="brown" height="10" width="10" x="48" y="60" /><rect fill="brown" height="10" width="10" x="48" y="72" /><rect fill="brown" height="10" width="10" x="60" y="0" /><rect fill="yellow" height="10" width="10" x="60" y="12" /><rect fill="brown" height="10" width="10" x="60" y="24" /><rect fill="brown" height="10" width="10" x="60" y="36" /><rect fill="brown" height="10" width="10" x="60" y="48" /><rect fill="brown" height="10" width="10" x="60" y="60" /><rect fill="brown" height="10" width="10" x="60" y="72" /><rect fill="brown" height="10" width="10" x="72" y="0" /><rect fill="brown" height="10" width="10" x="72" y="12" /><rect fill="brown" height="10" width="10" x="72" y="24" /><rect fill="brown" height="10" width="10" x="72" y="36" /><rect fill="brown" height="10" width="10" x="72" y="48" /><rect fill="brown" height="10" width="10" x="72" y="60" /><rect fill="brown" height="10" width="10" x="72" y="72" /><rect fill="brown" height="10" width="10" x="84" y="0" /><rect fill="brown" height="10" width="10" x="84" y="12" /><rect fill="brown" height="10" width="10" x="84" y="24" /><rect fill="brown" height="10" width="10" x="84" y="36" /><rect fill="brown" height="10" width="10" x="84" y="48" /><rect fill="brown" height="10" width="10" x="84" y="60" /><rect fill="brown" height="10" width="10" x="84" y="72" /><rect fill="brown" height="10" width="10" x="96" y="0" /><rect fill="brown" height="10" width="10" x="96" y="12" /><rect fill="brown" height="10" width="10" x="96" y="24" /><rect fill="brown" height="10" width="10" x="96" y="36" /><rect fill="brown" height="10" width="10" x="96" y="48" /><rect fill="brown" height="10" width="10" x="96" y="60" /><rect fill="brown" height="10" width="10" x="96" y="72" /><rect fill="yellow" height="10" width="10" x="108" y="0" /><rect fill="brown" height="10" width="10" x="108" y="12" /><rect fill="brown" height="10" width="10" x="108" y="24" /><rect fill="brown" height="10" width="10" x="108" y="36" /><rect fill="brown" height="10" width="10" x="108" y="48" /><rect fill="brown" height="10" width="10" x="108" y="60" /><rect fill="brown" height="10" width="10" x="108" y="72" /><rect fill="brown" height="10" width="10" x="120" y="0" /><rect fill="yellow" height="10" width="10" x="120" y="12" /><rect fill="brown" height="10" width="10" x="120" y="24" /><rect fill="brown" height="10" width="10" x="120" y="36" /><rect fill="brown" height="10" width="10" x="120" y="48" /><rect fill="brown" height="10" width="10" x="120" y="60" /><rect fill="brown" height="10" width="10" x="120" y="72" /><rect fill="brown" height="10" width="10" x="132" y="0" /><rect fill="brown" height="10" width="10" x="132" y="12" /><rect fill="brown" height="10" width="10" x="132" y="24" /><rect fill="brown" height="10" width="10" x="132" y="36" /><rect fill="yellow" height="10" width="10" x="132" y="48" /><rect fill="black" height="10" width="10" x="132" y="60" /><rect fill="black" height="10" width="10" x="132" y="72" /><rect fill="brown" height="10" width="10" x="144" y="0" /><rect fill="brown" height="10" width="10" x="144" y="12" /><rect fill="brown" height="10" width="10" x="144" y="24" /><rect fill="green" height="10" width="10" x="144" y="36" /><rect fill="green" height="10" width="10" x="144" y="48" /><rect fill="green" height="10" width="10" x="144" y="60" /><rect fill="green" height="10" width="10" x="144" y="72" /><rect fill="brown" height="10" width="10" x="156" y="0" /><rect fill="brown" height="10" width="10" x="156" y="12" /><rect fill="brown" height="10" width="10" x="156" y="24" /><rect fill="brown" height="10" width="10" x="156" y="36" /><rect fill="brown" height="10" width="10" x="156" y="48" /><rect fill="yellow" height="10" width="10" x="156" y="60" /><rect fill="brown" height="10" width="10" x="156" y="72" /><rect fill="brown" height="10" width="10" x="168" y="0" /><rect fill="brown" height="10" width="10" x="168" y="12" /><rect fill="brown" height="10" width="10" x="168" y="24" /><rect fill="brown" height="10" width="10" x="168" y="36" /><rect fill="brown" height="10" width="10" x="168" y="48" /><rect fill="yellow" height="10" width="10" x="168" y="60" /><rect fill="brown" height="10" width="10" x="168" y="72" /><rect fill="brown" height="10" width="10" x="180" y="0" /><rect fill="brown" height="10" width="10" x="180" y="12" /><rect fill="brown" height="10" width="10" x="180" y="24" /><rect fill="brown" height="10" width="10" x="180" y="36" /><rect fill="brown" height="10" width="10" x="180" y="48" /><rect fill="lightgreen" height="10" width="10" x="180" y="60" /><rect fill="lightgreen" height="10" width="10" x="180" y="72" /><rect fill="brown" height="10" width="10" x="192" y="0" /><rect fill="brown" height="10" width="10" x="192" y="12" /><rect fill="brown" height="10" width="10" x="192" y="24" /><rect fill="brown" height="10" width="10" x="192" y="36" /><rect fill="brown" height="10" width="10" x="192" y="48" /><rect fill="red" height="10" width="10" x="192" y="60" /><rect fill="red" height="10" width="10" x="192" y="72" /><rect fill="red" height="10" width="10" x="204" y="0" /><rect fill="red" height="10" width="10" x="204" y="12" /><rect fill="red" height="10" width="10" x="204" y="24" /><rect fill="red" height="10" width="10" x="204" y="36" /><rect fill="red" height="10" width="10" x="204" y="48" /><rect fill="black" height="10" width="10" x="204" y="60" /><rect fill="brown" height="10" width="10" x="204" y="72" /><rect fill="brown" height="10" width="10" x="216" y="0" /><rect fill="brown" height="10" width="10" x="216" y="12" /><rect fill="brown" height="10" width="10" x="216" y="24" /><rect fill="brown" height="10" width="10" x="216" y="36" /><rect fill="lightblue" height="10" width="10" x="216" y="48" /><rect fill="brown" height="10" width="10" x="216" y="60" /><rect fill="brown" height="10" width="10" x="216" y="72" /><rect fill="brown" height="10" width="10" x="228" y="0" /><rect fill="brown" height="10" width="10" x="228" y="12" /><rect fill="brown" height="10" width="10" x="228" y="24" /><rect fill="brown" height="10" width="10" x="228" y="36" /><rect fill="brown" height="10" width="10" x="228" y="48" /><rect fill="brown" height="10" width="10" x="228" y="60" /><rect fill="brown" height="10" width="10" x="228" y="72" /><rect fill="brown" height="10" width="10" x="240" y="0" /><rect fill="brown" height="10" width="10" x="240" y="12" /><rect fill="brown" height="10" width="10" x="240" y="24" /><rect fill="brown" height="10" width="10" x="240" y="36" /><rect fill="brown" height="10" width="10" x="240" y="48" /><rect fill="brown" height="10" width="10" x="240" y="60" /><rect fill="brown" height="10" width="10" x="240" y="72" /><rect fill="brown" height="10" width="10" x="252" y="0" /><rect fill="brown" height="10" width="10" x="252" y="12" /><rect fill="brown" height="10" width="10" x="252" y="24" /><rect fill="brown" height="10" width="10" x="252" y="36" /><rect fill="brown" height="10" width="10" x="252" y="48" /><rect fill="brown" height="10" width="10" x="252" y="60" /><rect fill="brown" height="10" width="10" x="252" y="72" /><rect fill="brown" height="10" width="10" x="264" y="0" /><rect fill="brown" height="10" width="10" x="264" y="12" /><rect fill="brown" height="10" width="10" x="264" y="24" /><rect fill="brown" height="10" width="10" x="264" y="36" /><rect fill="brown" height="10" width="10" x="264" y="48" /><rect fill="brown" height="10" width="10" x="264" y="60" /><rect fill="brown" height="10" width="10" x="264" y="72" /><rect fill="brown" height="10" width="10" x="276" y="0" /><rect fill="brown" height="10" width="10" x="276" y="12" /><rect fill="brown" height="10" width="10" x="276" y="24" /><rect fill="brown" height="10" width="10" x="276" y="36" /><rect fill="brown" height="10" width="10" x="276" y="48" /><rect fill="brown" height="10" width="10" x="276" y="60" /><rect fill="brown" height="10" width="10" x="276" y="72" /><rect fill="brown" height="10" width="10" x="288" y="0" /><rect fill="brown" height="10" width="10" x="288" y="12" /><rect fill="brown" height="10" width="10" x="288" y="24" /><rect fill="brown" height="10" width="10" x="288" y="36" /><rect fill="brown" height="10" width="10" x="288" y="48" /><rect fill="yellow" height="10" width="10" x="288" y="60" /><rect fill="brown" height="10" width="10" x="288" y="72" /><rect fill="brown" height="10" width="10" x="300" y="0" /><rect fill="brown" height="10" width="10" x="300" y="12" /><rect fill="brown" height="10" width="10" x="300" y="24" /><rect fill="brown" height="10" width="10" x="300" y="36" /><rect fill="brown" height="10" width="10" x="300" y="48" /><rect fill="brown" height="10" width="10" x="300" y="60" /><rect fill="brown" height="10" width="10" x="300" y="72" /><rect fill="brown" height="10" width="10" x="312" y="0" /><rect fill="brown" height="10" width="10" x="312" y="12" /><rect fill="brown" height="10" width="10" x="312" y="24" /><rect fill="brown" height="10" width="10" x="312" y="36" /><rect fill="brown" height="10" width="10" x="312" y="48" /><rect fill="brown" height="10" width="10" x="312" y="60" /><rect fill="brown" height="10" width="10" x="312" y="72" /><rect fill="brown" height="10" width="10" x="324" y="0" /><rect fill="brown" height="10" width="10" x="324" y="12" /><rect fill="brown" height="10" width="10" x="324" y="24" /><rect fill="brown" height="10" width="10" x="324" y="36" /><rect fill="brown" height="10" width="10" x="324" y="48" /><rect fill="#c39143" height="10" width="10" x="324" y="60" /><rect fill="brown" height="10" width="10" x="324" y="72" /><rect fill="brown" height="10" width="10" x="336" y="0" /><rect fill="brown" height="10" width="10" x="336" y="12" /><rect fill="brown" height="10" width="10" x="336" y="24" /><rect fill="brown" height="10" width="10" x="336" y="36" /><rect fill="brown" height="10" width="10" x="336" y="48" /><rect fill="brown" height="10" width="10" x="336" y="60" /><rect fill="brown" height="10" width="10" x="336" y="72" /><rect fill="brown" height="10" width="10" x="348" y="0" /><rect fill="brown" height="10" width="10" x="348" y="12" /><rect fill="brown" height="10" width="10" x="348" y="24" /><rect fill="brown" height="10" width="10" x="348" y="36" /><rect fill="brown" height="10" width="10" x="348" y="48" /><rect fill="brown" height="10" width="10" x="348" y="60" /><rect fill="brown" height="10" width="10" x="348" y="72" /><rect fill="brown" height="10" width="10" x="360" y="0" /><rect fill="brown" height="10" width="10" x="360" y="12" /><rect fill="brown" height="10" width="10" x="360" y="24" /><rect fill="brown" height="10" width="10" x="360" y="36" /><rect fill="brown" height="10" width="10" x="360" y="48" /><rect fill="brown" height="10" width="10" x="360" y="60" /><rect fill="brown" height="10" width="10" x="360" y="72" /><rect fill="brown" height="10" width="10" x="372" y="0" /><rect fill="brown" height="10" width="10" x="372" y="12" /><rect fill="brown" height="10" width="10" x="372" y="24" /><rect fill="lightblue" height="10" width="10" x="372" y="36" /><rect fill="brown" height="10" width="10" x="372" y="48" /><rect fill="green" height="10" width="10" x="372" y="60" /><rect fill="green" height="10" width="10" x="372" y="72" /><rect fill="green" height="10" width="10" x="384" y="0" /><rect fill="green" height="10" width="10" x="384" y="12" /><rect fill="green" height="10" width="10" x="384" y="24" /><rect fill="brown" height="10" width="10" x="384" y="36" /><rect fill="brown" height="10" width="10" x="384" y="48" /><rect fill="brown" height="10" width="10" x="384" y="60" /><rect fill="brown" height="10" width="10" x="384" y="72" /><rect fill="brown" height="10" width="10" x="396" y="0" /><rect fill="brown" height="10" width="10" x="396" y="12" /><rect fill="brown" height="10" width="10" x="396" y="24" /><rect fill="brown" height="10" width="10" x="396" y="36" /><rect fill="brown" height="10" width="10" x="396" y="48" /><rect fill="brown" height="10" width="10" x="396" y="60" /><rect fill="brown" height="10" width="10" x="396" y="72" /><rect fill="brown" height="10" width="10" x="408" y="0" /><rect fill="brown" height="10" width="10" x="408" y="12" /><rect fill="brown" height="10" width="10" x="408" y="24" /><rect fill="brown" height="10" width="10" x="408" y="36" /><rect fill="brown" height="10" width="10" x="408" y="48" /><rect fill="brown" height="10" width="10" x="408" y="60" /><rect fill="brown" height="10" width="10" x="408" y="72" /><rect fill="brown" height="10" width="10" x="420" y="0" /><rect fill="brown" height="10" width="10" x="420" y="12" /><rect fill="brown" height="10" width="10" x="420" y="24" /><rect fill="brown" height="10" width="10" x="420" y="36" /><rect fill="brown" height="10" width="10" x="420" y="48" /><rect fill="brown" height="10" width="10" x="420" y="60" /><rect fill="brown" height="10" width="10" x="420" y="72" /><rect fill="brown" height="10" width="10" x="432" y="0" /><rect fill="brown" height="10" width="10" x="432" y="12" /><rect fill="brown" height="10" width="10" x="432" y="24" /><rect fill="brown" height="10" width="10" x="432" y="36" /><rect fill="brown" height="10" width="10" x="432" y="48" /><rect fill="brown" height="10" width="10" x="432" y="60" /><rect fill="brown" height="10" width="10" x="432" y="72" /><rect fill="brown" height="10" width="10" x="444" y="0" /><rect fill="brown" height="10" width="10" x="444" y="12" /><rect fill="brown" height="10" width="10" x="444" y="24" /><rect fill="brown" height="10" width="10" x="444" y="36" /><rect fill="brown" height="10" width="10" x="444" y="48" /><rect fill="brown" height="10" width="10" x="444" y="60" /><rect fill="brown" height="10" width="10" x="444" y="72" /><rect fill="brown" height="10" width="10" x="456" y="0" /><rect fill="brown" height="10" width="10" x="456" y="12" /><rect fill="brown" height="10" width="10" x="456" y="24" /><rect fill="brown" height="10" width="10" x="456" y="36" /><rect fill="brown" height="10" width="10" x="456" y="48" /><rect fill="brown" height="10" width="10" x="456" y="60" /><rect fill="brown" height="10" width="10" x="456" y="72" /><rect fill="brown" height="10" width="10" x="468" y="0" /><rect fill="brown" height="10" width="10" x="468" y="12" /><rect fill="brown" height="10" width="10" x="468" y="24" /><rect fill="brown" height="10" width="10" x="468" y="36" /><rect fill="brown" height="10" width="10" x="468" y="48" /><rect fill="brown" height="10" width="10" x="468" y="60" /><rect fill="brown" height="10" width="10" x="468" y="72" /><rect fill="brown" height="10" width="10" x="480" y="0" /><rect fill="brown" height="10" width="10" x="480" y="12" /><rect fill="brown" height="10" width="10" x="480" y="24" /><rect fill="brown" height="10" width="10" x="480" y="36" /><rect fill="brown" height="10" width="10" x="480" y="48" /><rect fill="brown" height="10" width="10" x="480" y="60" /><rect fill="brown" height="10" width="10" x="480" y="72" /><rect fill="brown" height="10" width="10" x="492" y="0" /><rect fill="brown" height="10" width="10" x="492" y="12" /><rect fill="brown" height="10" width="10" x="492" y="24" /><rect fill="brown" height="10" width="10" x="492" y="36" /><rect fill="brown" height="10" width="10" x="492" y="48" /><rect fill="brown" height="10" width="10" x="492" y="60" /><rect fill="brown" height="10" width="10" x="492" y="72" /><rect fill="brown" height="10" width="10" x="504" y="0" /><rect fill="brown" height="10" width="10" x="504" y="12" /><rect fill="brown" height="10" width="10" x="504" y="24" /><rect fill="brown" height="10" width="10" x="504" y="36" /><rect fill="lightblue" height="10" width="10" x="504" y="48" /><rect fill="brown" height="10" width="10" x="504" y="60" /><rect fill="brown" height="10" width="10" x="504" y="72" /><rect fill="brown" height="10" width="10" x="516" y="0" /><rect fill="brown" height="10" width="10" x="516" y="12" /><rect fill="brown" height="10" width="10" x="516" y="24" /><rect fill="brown" height="10" width="10" x="516" y="36" /><rect fill="brown" height="10" width="10" x="516" y="48" /><rect fill="brown" height="10" width="10" x="516" y="60" /><rect fill="brown" height="10" width="10" x="516" y="72" /><rect fill="brown" height="10" width="10" x="528" y="0" /><rect fill="brown" height="10" width="10" x="528" y="12" /><rect fill="brown" height="10" width="10" x="528" y="24" /><rect fill="red" height="10" width="10" x="528" y="36" /><rect fill="brown" height="10" width="10" x="528" y="48" /><rect fill="brown" height="10" width="10" x="528" y="60" /><rect fill="brown" height="10" width="10" x="528" y="72" /><rect fill="brown" height="10" width="10" x="540" y="0" /><rect fill="brown" height="10" width="10" x="540" y="12" /><rect fill="brown" height="10" width="10" x="540" y="24" /><rect fill="brown" height="10" width="10" x="540" y="36" /><rect fill="brown" height="10" width="10" x="540" y="48" /><rect fill="green" height="10" width="10" x="540" y="60" /><rect fill="green" height="10" width="10" x="540" y="72" /><rect fill="green" height="10" width="10" x="552" y="0" /><rect fill="brown" height="10" width="10" x="552" y="12" /><rect fill="brown" height="10" width="10" x="552" y="24" /><rect fill="brown" height="10" width="10" x="552" y="36" /><rect fill="brown" height="10" width="10" x="552" y="48" /><rect fill="brown" height="10" width="10" x="552" y="60" /><rect fill="brown" height="10" width="10" x="552" y="72" /><rect fill="brown" height="10" width="10" x="564" y="0" /><rect fill="brown" height="10" width="10" x="564" y="12" /><rect fill="brown" height="10" width="10" x="564" y="24" /><rect fill="brown" height="10" width="10" x="564" y="36" /><rect fill="brown" height="10" width="10" x="564" y="48" /><rect fill="brown" height="10" width="10" x="564" y="60" /><rect fill="brown" height="10" width="10" x="564" y="72" /><rect fill="brown" height="10" width="10" x="576" y="0" /><rect fill="brown" height="10" width="10" x="576" y="12" /><rect fill="brown" height="10" width="10" x="576" y="24" /><rect fill="brown" height="10" width="10" x="576" y="36" /><rect fill="brown" height="10" width="10" x="576" y="48" /><rect fill="brown" height="10" width="10" x="576" y="60" /><rect fill="brown" height="10" width="10" x="576" y="72" /><rect fill="brown" height="10" width="10" x="588" y="0" /><rect fill="brown" height="10" width="10" x="588" y="12" /><rect fill="brown" height="10" width="10" x="588" y="24" /><rect fill="brown" height="10" width="10" x="588" y="36" /><rect fill="brown" height="10" width="10" x="588" y="48" /><rect fill="yellow" height="10" width="10" x="588" y="60" /><rect fill="brown" height="10" width="10" x="588" y="72" /><rect fill="brown" height="10" width="10" x="600" y="0" /><rect fill="brown" height="10" width="10" x="600" y="12" /><rect fill="brown" height="10" width="10" x="600" y="24" /><rect fill="brown" height="10" width="10" x="600" y="36" /><rect fill="brown" height="10" width="10" x="600" y="48" /><rect fill="brown" height="10" width="10" x="600" y="60" /><rect fill="brown" height="10" width="10" x="600" y="72" /><rect fill="brown" height="10" width="10" x="612" y="0" /><rect fill="brown" height="10" width="10" x="612" y="12" /><rect fill="brown" height="10" width="10" x="612" y="24" /><rect fill="brown" height="10" width="10" x="612" y="36" /><rect fill="brown" height="10" width="10" x="612" y="48" /><rect fill="red" height="10" width="10" x="612" y="60" /><rect fill="red" height="10" width="10" x="612" y="72" /><rect fill="red" height="10" width="10" x="624" y="0" /></g><g transform="translate(0, 50)"><text x="0" y="12">Mon</text><text x="0" y="24" /><text x="0" y="36">Wed</text><text x="0" y="48" /><text x="0" y="60">Fri</text><text x="0" y="72" /><text x="0" y="84">Sun</text></g><g transform="translate(50, 0)"><text x="0.0" y="20">1</text><text x="54.0" y="20">2</text><text x="108.0" y="20">3</text><text x="162.0" y="20">4</text><text x="216.0" y="20">5</text><text x="270.0" y="20">6</text><text x="324.0" y="20">7</text><text x="378.0" y="20">8</text><text x="432.0" y="20">9</text><text x="486.0" y="20">10</text><text x="540.0" y="20">11</text><text x="594.0" y="20">12</text></g></svg>