<?xml version="1.0" encoding="utf-8" ?>
<svg baseProfile="full" height="800" version="1.1" width="400" xmlns="http://www.w3.org/2000/svg" xmlns:ev="http://www.w3.org/2001/xml-events" xmlns:xlink="http://www.w3.org/1999/xlink"><defs /><g><rect fill="brown" height="20" width="20" x="0" y="12.0" /><text x="24" y="24">Kyoto (746 days)</text><rect fill="lightblue" height="20" width="20" x="0" y="36.0" /><text x="24" y="48">Kobe (133 days)</text><rect fill="lightgray" height="20" width="20" x="0" y="60.0" /><text x="24" y="72">Hida (86 days)</text><rect fill="green" height="20" width="20" x="0" y="84.0" /><text x="24" y="96">Tochigi (35 days)</text><rect fill="yellow" height="20" width="20" x="0" y="108.0" /><text x="24" y="120">Osaka (35 days)</text><rect fill="black" height="20" width="20" x="0" y="132.0" /><text x="24" y="144">Tokyo (28 days)</text><rect fill="red" height="20" width="20" x="0" y="156.0" /><text x="24" y="168">Jeju (8 days)</text><rect fill="red" height="20" width="20" x="0" y="180.0" /><text x="24" y="192">Sendai (5 days)</text><rect fill="red" height="20" width="20" x="0" y="204.0" /><text x="24" y="216">Tokushima (4 days)</text><rect fill="#c39143" height="20" width="20" x="0" y="228.0" /><text x="24" y="240">Nara (4 days)</text><rect fill="red" height="20" width="20" x="0" y="252.0" /><text x="24" y="264">Nagoya (4 days)</text><rect fill="red" height="20" width="20" x="0" y="276.0" /><text x="24" y="288">Mountain (4 days)</text><rect fill="lightgreen" height="20" width="20" x="0" y="300.0" /><text x="24" y="312">Shizuoka (4 days)</text><rect fill="red" height="20" width="20" x="0" y="324.0" /><text x="24" y="336">QLD (4 days)</text><rect fill="red" height="20" width="20" x="0" y="348.0" /><text x="24" y="360">Toyama (3 days)</text><rect fill="red" height="20" width="20" x="0" y="372.0" /><text x="24" y="384">NSW (3 days)</text><rect fill="red" height="20" width="20" x="0" y="396.0" /><text x="24" y="408">Shiga (2 days)</text><rect fill="red" height="20" width="20" x="0" y="420.0" /><text x="24" y="432">Fukui (2 days)</text><rect fill="red" height="20" width="20" x="0" y="444.0" /><text x="24" y="456">US-GA (2 days)</text><rect fill="red" height="20" width="20" x="0" y="468.0" /><text x="24" y="480">US-AL (2 days)</text><rect fill="red" height="20" width="20" x="0" y="492.0" /><text x="24" y="504">Yokohama (1 days)</text><rect fill="red" height="20" width="20" x="0" y="516.0" /><text x="24" y="528">Okayama (1 days)</text><rect fill="red" height="20" width="20" x="0" y="540.0" /><text x="24" y="552">US-LA (1 days)</text><rect fill="red" height="20" width="20" x="0" y="564.0" /><text x="24" y="576">US-TN (1 days)</text><rect fill="red" height="20" width="20" x="0" y="588.0" /><text x="24" y="600">US-TX (1 days)</text><rect fill="red" height="20" width="20" x="0" y="612.0" /><text x="24" y="624">ACT (1 days)</text></g></svg>